<svg xmlns="http://www.w3.org/2000/svg" viewBox="25 0 775 577"><g stroke="#000" fill="none"><path d="M226.9 15.3v9"/><path d="M226.9 529.8v-9"/><path d="M367.2 15.3v9"/><path d="M367.2 529.8v-111"/><path d="M507.5 15.3v9"/><path d="M507.5 529.8v-9"/><path d="M648 15.3v9"/><path d="M648 529.8v-9"/><rect x="86.5" y="15.5" width="701.8" height="514.5"/></g><g stroke="#000" fill="none"><path d="M342.816 15.2l4.536 130.4 4.824 103.4 4.752 77 4.752 57 4.824 41.9 4.752 30.4 4.752 21.6 4.824 15.1 4.752 10 4.752 6.3 4.824 3.4 4.752 1.4 4.752-.2 4.824-1.3 4.752-2.1 4.752-2.6 4.824-3.1 4.752-3.2 4.752-3.3 4.824-3.4 4.752-3.4 4.752-3.3 4.824-3.2 4.752-3 4.824-3 4.752-2.8 4.752-2.7 4.824-2.5 4.752-2.4 4.752-2.2 4.824-2.1 4.752-2 4.752-1.9 4.824-1.7 4.752-1.7 4.752-1.5 4.824-1.4 4.752-1.4 4.752-1.2 4.824-1.2 4.752-1.1 4.752-1.1 4.824-.9 4.752-.9 4.752-.9 4.824-.8 4.752-.7 4.824-.7 4.752-.7 4.752-.6 4.824-.6 4.752-.5 4.752-.5 4.824-.5 4.752-.5 4.752-.4 4.824-.4 4.752-.4 4.752-.3 4.824-.4 4.752-.3 4.752-.3 4.824-.2 4.752-.3 4.752-.3 4.824-.2 4.752-.2 4.752-.2 4.824-.2 4.752-.2 4.752-.2 4.824-.1 4.752-.2 4.824-.2 4.752-.1 4.752-.1 4.824-.2 4.752-.1 4.752-.1 4.824-.1 4.752-.1 4.752-.1 4.824-.1 4.752-.1 4.752-.1 4.824-.1h4.752l4.752-.1 4.824-.1h4.752l4.752-.1 4.824-.1h6.192"/><path d="M86.496 513.2h8.64"/><path d="M788.28 513.2h-8.64"/><path d="M86.496 430.2h8.64"/><path d="M788.28 430.2h-8.64"/><path d="M86.496 347.2h8.64"/><path d="M788.28 347.2h-8.64"/><path d="M86.496 264.2h8.64"/><path d="M788.28 264.2h-8.64"/><path d="M86.496 181.3h8.64"/><path d="M788.28 181.3h-8.64"/><path d="M86.496 98.3h8.64"/><path d="M788.28 98.3h-8.64"/><path d="M401.568 513.2v16.6"/><path d="M86.496 430.2h701.784"/><path d="M86.496 513.2h315.072"/></g><g font-size="24" text-anchor="middle" font-family="Arial,sans, sans-serif"><text x="87" y="553">0</text><text x="367" y="553">1</text><text x="400" y="553">r<tspan dy="5" font-size="18">m</tspan></text><text x="649" y="553">2</text><text x="67" y="521">−1</text><text x="70" y="438.5">0</text><text x="70" y="356">1</text><text x="70" y="273.5">2</text><text x="70" y="191">3</text><text x="70" y="108.5">4</text><text x="70" y="26">5</text><text x="720" y="570" font-size="28">r/σ</text><text x="50" y="66" font-size="28">V/ε</text></g></svg>